<svg xmlns="http://www.w3.org/2000/svg" width="1324" height="1323" xmlns:v="https://vecta.io/nano"><defs><linearGradient x1=".695%" y1="0%" x2="99.305%" y2="100%" id="A"><stop stop-color="#ff8f71" offset="0%"/><stop stop-color="#ff3e55" offset="100%"/></linearGradient></defs><path d="M821.895 497.739v328h-328v-228c0-55.228 44.772-100 100-100h228zm-545.239-1.278c90.575 0 164 73.425 164 164s-73.425 164-164 164-164-73.425-164-164 73.425-164 164-164zM822.228 111.49v328h-228c-55.228 0-100-44.772-100-100h0v-228h328zm-382.166-.904v228c0 55.228-44.772 100-100 100h-228v-328h328z" transform="rotate(22 67.652 1066.199)" fill="url(#A)" fill-rule="evenodd"/></svg>