<svg xmlns="http://www.w3.org/2000/svg" width="512" height="512" fill="none" xmlns:v="https://vecta.io/nano"><path fill="#fff" d="M0 0h512v512H0z"/><path d="M246 131.86v212.613c0 17.578 34.894 17.605 34.894 0V131.86c0-17.578-34.894-17.605-34.894 0h0zm196.347 61.174l-104.681 38.242c-2.914 1.066-2.792 4.808 0 5.9l101.191 39.608c5.007 1.953 9.439-3.933 4.397-5.9l-101.192-39.608v5.9l104.681-38.242c5.095-1.857.663-7.744-4.396-5.9z" fill="#67bece"/><path d="M62.219 268.229c19.736 73.589 94.695 131.938 188.52 146.576 15.733 2.451 31.815 3.834 47.861 3.862 11.191.013 11.209-13.68 0-13.694-87.159-.082-167.688-40.382-204.045-102.853-6.979-11.982-12.113-24.648-15.559-37.534-2.315-8.613-19.092-4.971-16.777 3.643z" fill="#3f54a3"/></svg>