<svg xmlns="http://www.w3.org/2000/svg" xmlns:xlink="http://www.w3.org/1999/xlink" width="925" height="882" xmlns:v="https://vecta.io/nano"><defs><linearGradient x1="0%" y1="27.881%" x2="100%" y2="72.119%" id="A"><stop stop-color="#ff8f71" offset="0%"/><stop stop-color="#ff3e55" offset="100%"/></linearGradient><linearGradient x1="0%" y1="41.725%" x2="100%" y2="58.275%" id="B"><stop stop-color="#ff8f71" offset="0%"/><stop stop-color="#ff3e55" offset="100%"/></linearGradient><filter x="-10.9%" y="-11.7%" width="121.8%" height="132.8%" id="C"><feOffset dy="20" in="SourceAlpha"/><feGaussianBlur stdDeviation="20"/><feColorMatrix values="0 0 0 0 0.421821759 0 0 0 0 0.554338424 0 0 0 0 0.893710371 0 0 0 0.243444056 0"/></filter><rect id="D" width="642" height="427" rx="15"/></defs><g transform="translate(40)" fill="none" fill-rule="evenodd"><rect fill="#2d2e40" opacity=".08" transform="matrix(1 0 0 -1 0 890)" x="145" y="144" width="600" height="602" rx="300"/><g transform="matrix(1 0 0 -1 0 882)" stroke="#2d2e40"><rect opacity=".5" x="105.5" y="100.5" width="679" height="681" rx="339.5"/><rect opacity=".25" x="5.5" y=".5" width="879" height="881" rx="439.5"/></g><g transform="translate(0 242)"><mask id="E" fill="#fff"><use xlink:href="#D"/></mask><g fill-rule="nonzero"><use fill="#000" filter="url(#C)" xlink:href="#D"/><use fill="url(#A)" xlink:href="#D"/><path d="M3 125h636a3 3 0 013 3v296a3 3 0 01-3 3H3a3 3 0 01-3-3V128a3 3 0 013-3z" fill="#2d2e40" mask="url(#E)"/><rect fill="#fff" mask="url(#E)" x="90.523" y="47.709" width="135.785" height="137.165" rx="3"/></g><ellipse fill="#2d2e40" mask="url(#E)" cx="158.416" cy="116.888" rx="39.306" ry="39.36"/><rect fill="#fff" fill-rule="nonzero" mask="url(#E)" x="248.939" y="47.709" width="302.538" height="325.617" rx="3"/></g><path d="M 209 526 C 256.125 452.633 290.977 412.98699999999997 313.557 407.062 C 347.427 398.17600000000004 337.322 490.202 386.092 479.535 C 434.86199999999997 468.869 440.808 375.56100000000004 477.695 371.165 C 514.582 366.76800000000003 534.097 452.111 550.21 459.975 C 560.952 465.216 574.215 453.88100000000003 590 425.968" stroke="url(#B)" stroke-width="8" stroke-linecap="round"/></g></svg>