<svg xmlns="http://www.w3.org/2000/svg" xmlns:xlink="http://www.w3.org/1999/xlink" width="498" height="359" xmlns:v="https://vecta.io/nano"><style><![CDATA[.B{fill-rule:nonzero}]]></style><defs><linearGradient x1="0%" y1="27.795%" x2="100%" y2="72.205%" id="A"><stop stop-color="#ff8f71" offset="0%"/><stop stop-color="#ff3e55" offset="100%"/></linearGradient><filter x="-35.1%" y="-60.8%" width="170.1%" height="221.7%" id="B"><feOffset dy="20" in="SourceAlpha"/><feGaussianBlur stdDeviation="20"/><feColorMatrix values="0 0 0 0 0.421821759 0 0 0 0 0.554338424 0 0 0 0 0.893710371 0 0 0 0.243444056 0" result="C"/><feMerge><feMergeNode in="C"/><feMergeNode in="SourceGraphic"/></feMerge></filter><rect id="C" width="237" height="157.94" rx="3"/><path d="M3 0h321.953a3 3 0 013 3v4.602H0V3a3 3 0 013-3z" id="D"/></defs><g fill="none" fill-rule="evenodd"><rect fill="#2d2e40" opacity=".08" transform="matrix(1 0 0 -1 86 346)" x="52" y="53" width="223" height="223" rx="111.5"/><g transform="matrix(1 0 0 -1 86 343)" stroke="#2d2e40"><rect opacity=".5" x="37.5" y="37.5" width="251" height="251" rx="125.5"/><rect opacity=".25" x=".5" y=".5" width="325" height="325" rx="162.5"/></g><g filter="url(#B)" transform="translate(85 85)"><g class="B"><rect fill="#535353" x="39" y="7" width="252" height="173" rx="12"/><rect fill="#1d1d25" x="40" y="9" width="250" height="170" rx="10"/></g><g transform="translate(47 15)"><mask id="E" fill="#fff"><use xlink:href="#C"/></mask><g class="B"><use fill="url(#A)" xlink:href="#C"/><rect fill="#f9f6f6" mask="url(#E)" x="-.152" y="28.352" width="237" height="129.709" rx="3"/><g mask="url(#E)"><g transform="translate(33.478 17.615)"><g fill="#fff"><rect width="49.951" height="120.635" rx="3"/><rect x="58.453" width="111.592" height="120.635" rx="3"/></g><g fill="#e7e7e7"><rect x="63.235" y="6.405" width="102.027" height="28.291" rx="3"/><rect x="63.235" y="40.568" width="30.289" height="28.291" rx="3"/><rect x="100.964" y="40.568" width="64.298" height="28.291" rx="3"/></g></g></g></g></g><g transform="translate(164)" fill="#4a5166" opacity=".098" class="B"><rect width="6.12" height="1" rx=".5"/><rect x="7.56" width="1.44" height="1" rx=".5"/></g><g transform="translate(0 178)"><mask id="F" fill="#fff"><use xlink:href="#D"/></mask><g class="B"><use fill="#52526f" xlink:href="#D"/><rect fill="#2f2f47" mask="url(#F)" x="137.193" y="-18.626" width="53.567" height="23.187" rx="10"/></g></g><path d="M0 186h328a3 3 0 01-3 3H3a3 3 0 01-3-3z" fill="#393a56" class="B"/></g></g></svg>