<svg xmlns="http://www.w3.org/2000/svg" xmlns:xlink="http://www.w3.org/1999/xlink" width="406" height="331" xmlns:v="https://vecta.io/nano"><defs><linearGradient x1="0%" y1="27.846%" x2="100%" y2="72.154%" id="A"><stop stop-color="#ff8f71" offset="0%"/><stop stop-color="#ff3e55" offset="100%"/></linearGradient><linearGradient x1="0%" y1="41.623%" x2="100%" y2="58.377%" id="B"><stop stop-color="#ff8f71" offset="0%"/><stop stop-color="#ff3e55" offset="100%"/></linearGradient><filter x="-21.5%" y="-23%" width="142.9%" height="164.5%" id="C"><feOffset dy="20" in="SourceAlpha"/><feGaussianBlur stdDeviation="20"/><feColorMatrix values="0 0 0 0 0.421821759 0 0 0 0 0.554338424 0 0 0 0 0.893710371 0 0 0 0.243444056 0"/></filter><rect id="D" width="326" height="217" rx="5"/></defs><g fill="none" fill-rule="evenodd"><rect fill="#2d2e40" opacity=".08" transform="matrix(1 0 0 -1 40 329)" x="52" y="53" width="223" height="223" rx="111.5"/><g transform="matrix(1 0 0 -1 40 326)" stroke="#2d2e40"><rect opacity=".5" x="37.5" y="37.5" width="251" height="251" rx="125.5"/><rect opacity=".25" x=".5" y=".5" width="325" height="325" rx="162.5"/></g><g transform="translate(40 54)"><mask id="E" fill="#fff"><use xlink:href="#D"/></mask><g fill-rule="nonzero"><use fill="#000" filter="url(#C)" xlink:href="#D"/><use fill="url(#A)" xlink:href="#D"/><path d="M3 63.525h320a3 3 0 013 3V214a3 3 0 01-3 3H3a3 3 0 01-3-3V66.525a3 3 0 013-3z" fill="#2d2e40" mask="url(#E)"/><rect fill="#fff" mask="url(#E)" x="45.967" y="24.246" width="68.95" height="69.707" rx="3"/></g><ellipse fill="#2d2e40" mask="url(#E)" cx="80.442" cy="59.402" rx="19.959" ry="20.003"/><rect fill="#fff" fill-rule="nonzero" mask="url(#E)" x="126.408" y="24.246" width="153.625" height="165.478" rx="3"/></g><path d="M 146 198 C 169.871 160.606 187.526 140.4 198.964 137.38 C 216.122 132.85 211.004 179.754 235.708 174.31799999999998 C 260.413 168.882 263.425 121.324 282.111 119.084 C 300.796 116.843 310.681 160.341 318.844 164.348 C 324.28499999999997 167.02 331.004 161.243 339 147.01600000000002" stroke="url(#B)" stroke-width="8" stroke-linecap="round"/></g></svg>