<svg xmlns="http://www.w3.org/2000/svg" xmlns:xlink="http://www.w3.org/1999/xlink" width="974" height="786" xmlns:v="https://vecta.io/nano"><style><![CDATA[.B{fill-rule:nonzero}]]></style><defs><linearGradient x1="0%" y1="27.97%" x2="100%" y2="72.03%" id="A"><stop stop-color="#ff8f71" offset="0%"/><stop stop-color="#ff3e55" offset="100%"/></linearGradient><filter x="-16.5%" y="-28.5%" width="132.9%" height="157.1%" id="B"><feOffset dy="20" in="SourceAlpha"/><feGaussianBlur stdDeviation="20"/><feColorMatrix values="0 0 0 0 0.421821759 0 0 0 0 0.554338424 0 0 0 0 0.893710371 0 0 0 0.243444056 0" result="C"/><feMerge><feMergeNode in="C"/><feMergeNode in="SourceGraphic"/></feMerge></filter><rect id="C" width="506" height="335.872" rx="3"/><path d="M3 0h692.9a3 3 0 013 3v14.105H0V3a3 3 0 013-3z" id="D"/></defs><g fill="none" fill-rule="evenodd"><g transform="matrix(1 0 0 -1 0 786)" stroke="#2d2e40"><rect opacity=".5" x="59.5" y="59.5" width="665" height="667" rx="332.5"/><rect opacity=".25" x=".5" y=".5" width="783" height="785" rx="391.5"/></g><rect fill="#2d2e40" opacity=".08" transform="matrix(1 0 0 -1 0 786)" x="117" y="117" width="550" height="552" rx="275"/><g transform="translate(190 192)" filter="url(#B)"><g class="B"><rect fill="#535353" x="82" y="16" width="538" height="368" rx="12"/><rect fill="#1d1d25" x="85" y="19" width="532" height="362" rx="10"/></g><g transform="translate(99 32)"><mask id="E" fill="#fff"><use xlink:href="#C"/></mask><g class="B"><use fill="url(#A)" xlink:href="#C"/><rect fill="#f9f6f6" mask="url(#E)" x="-.325" y="60.293" width="506" height="275.838" rx="3"/><g mask="url(#E)"><g transform="translate(71.475 37.46)"><g fill="#fff"><rect width="106.646" height="256.541" rx="3"/><rect x="124.798" width="238.251" height="256.541" rx="3"/></g><g fill="#e7e7e7"><rect x="135.009" y="13.622" width="217.83" height="60.162" rx="3"/><rect x="135.009" y="86.27" width="64.668" height="60.162" rx="3"/><rect x="215.561" y="86.27" width="137.278" height="60.162" rx="3"/></g></g></g></g></g><g transform="translate(349)" fill="#4a5166" opacity=".098" class="B"><rect width="13.6" height="3" rx="1.5"/><rect x="16.8" width="3.2" height="3" rx="1.5"/></g><g transform="translate(0 380)"><mask id="F" fill="#fff"><use xlink:href="#D"/></mask><g class="B"><use fill="#52526f" xlink:href="#D"/><rect fill="#2f2f47" mask="url(#F)" x="292.371" y="-41.908" width="114.156" height="52.171" rx="10"/></g></g><path d="M0 397h699a6 6 0 01-6 6H6a6 6 0 01-6-6z" fill="#393a56" class="B"/></g></g></svg>